<svg width="103" height="70" viewBox="0 0 103 70" fill="none" xmlns="http://www.w3.org/2000/svg">
<path d="M53 14V14C53 12.1423 53 11.2135 53.1027 10.4337C53.8116 5.04888 58.0489 0.811583 63.4337 0.10266C64.2135 -1.66893e-06 65.1423 -1.66893e-06 67 -1.66893e-06L103 -1.66893e-06V-1.66893e-06C103 1.85768 103 2.78652 102.897 3.56631C102.188 8.95112 97.9511 13.1884 92.5663 13.8973C91.7865 14 90.8577 14 89 14L53 14Z" fill="white"/>
<path d="M53 17V17C54.8577 17 55.7865 17 56.5663 17.1027C61.9511 17.8116 66.1884 22.0489 66.8973 27.4337C67 28.2135 67 29.1423 67 31V38C67 39.8577 67 40.7865 66.8973 41.5663C66.1884 46.9511 61.9511 51.1884 56.5663 51.8973C55.7865 52 54.8577 52 53 52V52V17Z" fill="white"/>
<path d="M103 69C103 67.1423 103 66.2135 102.897 65.4337C102.188 60.0489 97.9511 55.8116 92.5663 55.1027C91.7865 55 90.8577 55 89 55H53C53 56.8577 53 57.7865 53.1027 58.5663C53.8116 63.9511 58.0489 68.1884 63.4337 68.8973C64.2135 69 65.1423 69 67 69H103Z" fill="white"/>
<path d="M0 14V14C0 12.1423 0 11.2135 0.102662 10.4337C0.811584 5.04888 5.04888 0.811583 10.4337 0.10266C11.2135 -1.66893e-06 12.1423 -1.66893e-06 14 -1.66893e-06L43 -1.66893e-06C46.866 -1.66893e-06 50 3.13401 50 7V7C50 10.866 46.866 14 43 14L0 14Z" fill="white"/>
<path d="M50 42V42C50 40.1423 50 39.2135 49.8973 38.4337C49.1884 33.0489 44.9511 28.8116 39.5663 28.1027C38.7865 28 37.8577 28 36 28L-5.96046e-06 28V28C-5.96046e-06 29.8577 -5.96046e-06 30.7865 0.102656 31.5663C0.811578 36.9511 5.04888 41.1884 10.4337 41.8973C11.2135 42 12.1423 42 14 42H50Z" fill="white"/>
<path d="M0 70V70C0 68.1423 0 67.2135 0.102662 66.4337C0.811584 61.0489 5.04888 56.8116 10.4337 56.1027C11.2135 56 12.1423 56 14 56H50V56C50 57.8577 50 58.7865 49.8973 59.5663C49.1884 64.9511 44.9511 69.1884 39.5663 69.8973C38.7865 70 37.8577 70 36 70H0Z" fill="white"/>
</svg>
