<svg width="140" height="140" viewBox="0 0 140 140" fill="none" xmlns="http://www.w3.org/2000/svg">
<rect width="140" height="140" rx="5" fill="#171717"/>
<path d="M71 49V49C71 47.1423 71 46.2135 71.1027 45.4337C71.8116 40.0489 76.0489 35.8116 81.4337 35.1027C82.2135 35 83.1423 35 85 35H121V35C121 36.8577 121 37.7865 120.897 38.5663C120.188 43.9511 115.951 48.1884 110.566 48.8973C109.787 49 108.858 49 107 49H71Z" fill="white"/>
<path d="M71 52V52C72.8577 52 73.7865 52 74.5663 52.1027C79.9511 52.8116 84.1884 57.0489 84.8973 62.4337C85 63.2135 85 64.1423 85 66V73C85 74.8577 85 75.7865 84.8973 76.5663C84.1884 81.9511 79.9511 86.1884 74.5663 86.8973C73.7865 87 72.8577 87 71 87V87V52Z" fill="white"/>
<path d="M121 104C121 102.142 121 101.213 120.897 100.434C120.188 95.0489 115.951 90.8116 110.566 90.1027C109.787 90 108.858 90 107 90H71C71 91.8577 71 92.7865 71.1027 93.5663C71.8116 98.9511 76.0489 103.188 81.4337 103.897C82.2135 104 83.1423 104 85 104H121Z" fill="white"/>
<path d="M18 49V49C18 47.1423 18 46.2135 18.1027 45.4337C18.8116 40.0489 23.0489 35.8116 28.4337 35.1027C29.2135 35 30.1423 35 32 35H61C64.866 35 68 38.134 68 42V42C68 45.866 64.866 49 61 49H18Z" fill="white"/>
<path d="M68 77V77C68 75.1423 68 74.2135 67.8973 73.4337C67.1884 68.0489 62.9511 63.8116 57.5663 63.1027C56.7865 63 55.8577 63 54 63H18V63C18 64.8577 18 65.7865 18.1027 66.5663C18.8116 71.9511 23.0489 76.1884 28.4337 76.8973C29.2135 77 30.1423 77 32 77H68Z" fill="white"/>
<path d="M18 105V105C18 103.142 18 102.213 18.1027 101.434C18.8116 96.0489 23.0489 91.8116 28.4337 91.1027C29.2135 91 30.1423 91 32 91H68V91C68 92.8577 68 93.7865 67.8973 94.5663C67.1884 99.9511 62.9511 104.188 57.5663 104.897C56.7865 105 55.8577 105 54 105H18Z" fill="white"/>
<rect width="140" height="140" rx="5" fill="#FAFAFA"/>
<path d="M71 49V49C71 47.1423 71 46.2135 71.1027 45.4337C71.8116 40.0489 76.0489 35.8116 81.4337 35.1027C82.2135 35 83.1423 35 85 35H121V35C121 36.8577 121 37.7865 120.897 38.5663C120.188 43.9511 115.951 48.1884 110.566 48.8973C109.787 49 108.858 49 107 49H71Z" fill="#171717"/>
<path d="M71 52V52C72.8577 52 73.7865 52 74.5663 52.1027C79.9511 52.8116 84.1884 57.0489 84.8973 62.4337C85 63.2135 85 64.1423 85 66V73C85 74.8577 85 75.7865 84.8973 76.5663C84.1884 81.9511 79.9511 86.1884 74.5663 86.8973C73.7865 87 72.8577 87 71 87V87V52Z" fill="#171717"/>
<path d="M121 104C121 102.142 121 101.213 120.897 100.434C120.188 95.0489 115.951 90.8116 110.566 90.1027C109.787 90 108.858 90 107 90H71C71 91.8577 71 92.7865 71.1027 93.5663C71.8116 98.9511 76.0489 103.188 81.4337 103.897C82.2135 104 83.1423 104 85 104H121Z" fill="#171717"/>
<path d="M18 49V49C18 47.1423 18 46.2135 18.1027 45.4337C18.8116 40.0489 23.0489 35.8116 28.4337 35.1027C29.2135 35 30.1423 35 32 35H61C64.866 35 68 38.134 68 42V42C68 45.866 64.866 49 61 49H18Z" fill="#171717"/>
<path d="M68 77V77C68 75.1423 68 74.2135 67.8973 73.4337C67.1884 68.0489 62.9511 63.8116 57.5663 63.1027C56.7865 63 55.8577 63 54 63H18V63C18 64.8577 18 65.7865 18.1027 66.5663C18.8116 71.9511 23.0489 76.1884 28.4337 76.8973C29.2135 77 30.1423 77 32 77H68Z" fill="#171717"/>
<path d="M18 105V105C18 103.142 18 102.213 18.1027 101.434C18.8116 96.0489 23.0489 91.8116 28.4337 91.1027C29.2135 91 30.1423 91 32 91H68V91C68 92.8577 68 93.7865 67.8973 94.5663C67.1884 99.9511 62.9511 104.188 57.5663 104.897C56.7865 105 55.8577 105 54 105H18Z" fill="#171717"/>
</svg>
