<svg xmlns="http://www.w3.org/2000/svg" width="3000" height="3000" fill="none" viewBox="0 0 3000 3000" id="business-tasklist"><path fill="#E7E8FF" d="M505.711 917.809C642.83 876.569 791.375 697.294 848.508 612.811C929.925 466.756 668.54 612.811 539.991 681.543C411.442 750.275 334.313 969.357 505.711 917.809Z"></path><path fill="#E7E8FF" d="M2785.31 2170.25C2785.31 2316.19 2704.2 2457.58 2623.32 2558.79C2557.5 2641.17 2453.2 2677.14 2347.91 2677.14H465.155C359.493 2677.14 285.702 2527.21 267.471 2422.87C235.12 2237.71 65.1329 2031.22 94.349 1714.9C137.199 1250.96 428.577 1109.2 732.809 933.072C1037.04 756.947 839.933 499.203 1362.7 344.556C1885.46 189.909 2438.23 701.103 2421.09 1177.93C2403.95 1654.76 2785.31 1723.49 2785.31 2170.25Z"></path><path fill="#fff" d="M2041.43 2219.51C2078.32 2470.24 2269.23 2615.15 2368.37 2659.73C2371.55 2661.16 2374.91 2661.82 2378.4 2661.82H2406.34C2422.95 2661.82 2435.19 2646.24 2430.7 2630.24C2354.3 2358.31 2177.12 2233.58 2070.95 2194.65C2054.63 2188.66 2038.9 2202.31 2041.43 2219.51Z"></path><path fill="#032068" fill-rule="evenodd" d="M2068.01 2202.68C2058.23 2199.1 2048.23 2206.99 2049.89 2218.26C2086.22 2465.18 2274.42 2608.1 2371.88 2651.93C2373.86 2652.82 2376.01 2653.26 2378.4 2653.26H2406.34C2417.51 2653.26 2425.37 2642.88 2422.47 2632.56C2346.87 2363.48 2171.81 2240.74 2068.01 2202.68ZM2032.97 2220.75C2029.56 2197.63 2051.02 2178.23 2073.9 2186.62C2182.43 2226.41 2361.73 2353.14 2438.94 2627.93C2445.02 2649.59 2428.4 2670.37 2406.34 2670.37H2378.4C2373.81 2670.37 2369.24 2669.5 2364.86 2667.53C2264.05 2622.19 2070.42 2475.3 2032.97 2220.75Z" clip-rule="evenodd"></path><path fill="#032068" fill-rule="evenodd" d="M2195.12 2363.82C2168.68 2336.64 2144.79 2314.87 2123.85 2296.25L2135.21 2283.46C2159.9 2305.41 2188.89 2331.92 2221.35 2366.53C2245.46 2392.23 2271.47 2422.37 2299.05 2458.41V2421.52H2316.15V2481.26C2339.71 2513.42 2364.33 2549.89 2389.81 2591.52C2401.9 2611.26 2414.19 2632.17 2426.65 2654.33L2411.74 2662.72C2400.08 2641.98 2388.57 2622.35 2377.25 2603.77L2322.32 2594.54L2325.16 2577.67L2365.29 2584.41C2342.99 2548.84 2321.42 2517.28 2300.71 2489.13C2268.76 2445.7 2238.83 2410.37 2211.4 2380.93H2155.86V2363.82H2195.12Z" clip-rule="evenodd"></path><path fill="#032068" d="M2340.73 1784.13C2180.94 2121.67 2295.6 2491.82 2382.38 2652.19C2386.76 2660.28 2395.25 2665.11 2404.45 2665.11H2444.62C2458.11 2665.11 2469.31 2654.53 2470.14 2641.07C2496.3 2215.34 2431.36 1918.52 2382.28 1785.55C2375.09 1766.06 2349.61 1765.36 2340.73 1784.13Z"></path><path fill="#fff" d="M2710.84 1976.52C2506.02 2114.86 2406.58 2452.83 2377.31 2636.32C2374.87 2651.62 2386.86 2665.11 2402.35 2665.11H2461.52C2468.16 2665.11 2474.55 2662.55 2479.25 2657.87C2666.18 2471.7 2732.5 2164.41 2745.91 1997.67C2747.48 1978.14 2727.08 1965.55 2710.84 1976.52Z"></path><path fill="#032068" fill-rule="evenodd" d="M2737.39 1996.99C2738.42 1984.13 2725.54 1976.92 2715.63 1983.61L2710.84 1976.52L2715.63 1983.61C2615.19 2051.44 2539.95 2168.77 2486.09 2292.89C2432.3 2416.84 2400.3 2546.49 2385.76 2637.67C2384.18 2647.55 2391.89 2656.55 2402.35 2656.55H2461.52C2465.97 2656.55 2470.17 2654.84 2473.22 2651.81C2565.43 2559.97 2628.19 2437.92 2669.56 2317.7C2710.92 2197.53 2730.73 2079.74 2737.39 1996.99ZM2706.06 1969.43C2728.63 1954.19 2756.55 1972.15 2754.44 1998.36C2747.68 2082.34 2727.62 2201.56 2685.74 2323.27C2643.87 2444.92 2580 2569.6 2485.29 2663.93C2478.93 2670.26 2470.34 2673.66 2461.52 2673.66H2402.35C2381.83 2673.66 2365.56 2655.69 2368.86 2634.97C2383.59 2542.66 2415.94 2411.58 2470.4 2286.08C2524.78 2160.76 2601.67 2039.93 2706.06 1969.43Z" clip-rule="evenodd"></path><path fill="#032068" d="M2882.97 2338.14C2679.82 2345.75 2526.51 2514.52 2456.36 2628.55C2446.3 2644.91 2458.5 2665.11 2477.7 2665.11H2548.75C2552.32 2665.11 2555.82 2664.39 2559.06 2662.91C2692.34 2602.26 2827.89 2463.19 2900.55 2375.57C2913.44 2360.03 2903.15 2337.39 2882.97 2338.14Z"></path><path fill="#fff" fill-rule="evenodd" d="M2368.5 1839.18C2366.24 1907.41 2365.89 1973.32 2367 2036.25C2367.86 2084.96 2369.59 2131.88 2371.99 2176.71L2408.63 2117.48L2423.18 2126.48L2373.7 2206.46C2377.16 2263.03 2381.65 2315.98 2386.73 2364.68C2392.74 2422.46 2399.57 2474.24 2406.47 2518.9L2438.21 2466.47L2452.85 2475.33L2410.64 2545.04C2419.06 2596.04 2427.33 2636.03 2434.08 2663.03L2417.48 2667.18C2410.45 2639.05 2401.89 2597.5 2393.25 2544.7C2385.21 2495.62 2377.1 2436.75 2370.06 2369.81L2308.25 2316.06L2319.48 2303.15L2367.54 2344.94C2363.25 2301.25 2359.46 2254.39 2356.46 2204.79C2353.29 2152.43 2351 2097.03 2349.94 2039.09L2306.78 1975.36L2320.95 1965.77L2349.49 2007.92C2348.93 1953.45 2349.47 1896.87 2351.4 1838.61L2368.5 1839.18Z" clip-rule="evenodd"></path><path fill="#032068" fill-rule="evenodd" d="M2602.72 2243.61C2635 2171.38 2668.28 2103.66 2699.76 2050.64L2685.05 2041.91C2650.51 2100.08 2614.06 2175.29 2579.25 2254.34C2560.3 2297.36 2541.82 2341.57 2524.37 2384.88L2509.88 2311.25L2493.1 2314.55L2512.69 2414.12C2494.64 2459.69 2477.9 2503.71 2463.16 2543.65C2446.04 2590.03 2431.62 2630.93 2420.97 2662.36L2437.17 2667.85C2447.55 2637.22 2461.55 2597.51 2478.15 2552.43L2565.08 2501.31L2556.4 2486.57L2487.57 2527.05C2500.39 2492.74 2514.51 2455.93 2529.52 2418.09C2549.53 2367.64 2571.13 2315.37 2593.37 2264.71L2672.05 2238.73L2666.68 2222.48L2602.72 2243.61Z" clip-rule="evenodd"></path><path fill="#fff" fill-rule="evenodd" d="M2853.81 2386.58C2806.87 2406.92 2759.17 2434.72 2713.66 2465.55C2684.99 2484.97 2657.24 2505.57 2631.13 2526.21H2675.95V2543.31H2609.87C2549.38 2592.84 2499.82 2640.67 2471.53 2670.95L2459.03 2659.27C2488.24 2628.01 2539.28 2578.81 2601.42 2528.13C2632.6 2502.7 2666.62 2476.86 2702.1 2452.72L2727.44 2398.17L2742.96 2405.38L2729.31 2434.75C2767.74 2410.14 2807.52 2387.99 2847.01 2370.88L2853.81 2386.58Z" clip-rule="evenodd"></path><path fill="#fff" d="M1114.19 2136.8C1034.98 2222.62 1320.13 2458.62 1320.14 2677.14H1528.06H1735.99C1714.87 2663.9 1678.96 2620.73 1704.3 2553.98C1735.99 2470.54 1930.05 2438.76 1890.45 2351.35C1850.84 2263.94 1759.75 2351.35 1672.62 2299.7C1585.49 2248.05 1680.54 2200.37 1795.4 2085.15C1910.25 1969.93 1704.3 1981.85 1617.17 2025.56C1530.04 2069.26 1534 1989.8 1545.88 1822.93C1557.77 1656.06 1486.48 1520.97 1427.07 1552.76C1367.66 1584.54 1466.67 1950.07 1403.31 1910.34C1339.94 1870.61 1276.57 1727.58 1256.77 1862.66C1236.97 1997.75 1383.5 2208.32 1320.14 2224.21C1256.77 2240.1 1213.2 2029.53 1114.19 2136.8Z"></path><path fill="#fff" d="M1134.5 641.435C1134.5 617.815 1153.65 598.668 1177.27 598.668H2751.09C2774.71 598.668 2793.86 617.815 2793.86 641.435V1846.51C2793.86 1870.13 2774.71 1889.28 2751.09 1889.28H1177.27C1153.65 1889.28 1134.5 1870.13 1134.5 1846.51V641.435Z"></path><path fill="#032068" fill-rule="evenodd" d="M1125.95 641.435C1125.95 613.092 1148.93 590.115 1177.27 590.115H2751.09C2779.44 590.115 2802.41 613.091 2802.41 641.435V1846.51C2802.41 1874.86 2779.44 1897.83 2751.09 1897.83H1177.27C1148.93 1897.83 1125.95 1874.86 1125.95 1846.51V641.435ZM1177.27 607.221C1158.37 607.221 1143.06 622.539 1143.06 641.435V1846.51C1143.06 1865.41 1158.37 1880.73 1177.27 1880.73H2751.09C2769.99 1880.73 2785.31 1865.41 2785.31 1846.51V641.435C2785.31 622.539 2769.99 607.221 2751.09 607.221H1177.27Z" clip-rule="evenodd"></path><path fill="#032068" d="M1134.5 641.435C1134.5 617.815 1153.65 598.668 1177.27 598.668H2751.09C2774.71 598.668 2793.86 617.815 2793.86 641.435V808.472H1134.5V641.435Z"></path><path fill="#fff" d="M1343.33 699.902C1343.33 724.211 1323.62 743.917 1299.31 743.917 1275 743.917 1255.3 724.211 1255.3 699.902 1255.3 675.593 1275 655.887 1299.31 655.887 1323.62 655.887 1343.33 675.593 1343.33 699.902zM1490.04 699.902C1490.04 724.211 1470.34 743.917 1446.03 743.917 1421.72 743.917 1402.01 724.211 1402.01 699.902 1402.01 675.593 1421.72 655.887 1446.03 655.887 1470.34 655.887 1490.04 675.593 1490.04 699.902zM1636.76 699.902C1636.76 724.211 1617.05 743.917 1592.74 743.917 1568.43 743.917 1548.73 724.211 1548.73 699.902 1548.73 675.593 1568.43 655.887 1592.74 655.887 1617.05 655.887 1636.76 675.593 1636.76 699.902z"></path><path fill="#F4AD5E" fill-rule="evenodd" d="M1335.45 1013.56C1336.18 985.382 1358.84 962.039 1387.46 962.039H1589.49C1616.89 962.039 1639.79 983.679 1640.29 1011.37 1642.09 1111.45 1630.34 1174.36 1580.06 1249.89 1570.78 1263.83 1555.03 1271.6 1538.67 1271.6H1348.48C1308.54 1271.6 1285.16 1228.81 1300.39 1193.76 1323.22 1141.24 1333.46 1090.35 1335.45 1013.56zM1387.46 979.146C1368.54 979.146 1353.05 994.661 1352.55 1014 1350.52 1092.39 1340 1145.56 1316.08 1200.58 1305.06 1225.94 1322.57 1254.49 1348.48 1254.49H1538.67C1549.7 1254.49 1559.92 1249.27 1565.82 1240.41 1613.56 1168.69 1624.95 1109.58 1623.19 1011.68 1622.86 993.612 1607.86 979.146 1589.49 979.146H1387.46zM1758.98 1232.66C1759.71 1204.48 1782.37 1181.14 1810.99 1181.14H2013.03C2040.42 1181.14 2063.33 1202.78 2063.83 1230.47 2065.63 1330.55 2053.87 1393.46 2003.6 1468.99 1994.31 1482.93 1978.57 1490.7 1962.21 1490.7H1772.02C1732.07 1490.7 1708.7 1447.9 1723.93 1412.86 1746.76 1360.34 1756.99 1309.45 1758.98 1232.66zM1810.99 1198.25C1792.08 1198.25 1776.59 1213.76 1776.08 1233.1 1774.05 1311.49 1763.54 1364.65 1739.62 1419.68 1728.6 1445.04 1746.11 1473.59 1772.02 1473.59H1962.21C1973.24 1473.59 1983.46 1468.36 1989.35 1459.51 2037.1 1387.79 2048.48 1328.68 2046.72 1230.78 2046.4 1212.71 2031.4 1198.25 2013.03 1198.25H1810.99z" clip-rule="evenodd"></path><path fill="#E7E8FF" fill-rule="evenodd" d="M2314.53 1077.14C2315.26 1048.96 2337.91 1025.62 2366.53 1025.62H2568.57C2595.97 1025.62 2618.87 1047.26 2619.37 1074.95C2621.17 1175.03 2609.42 1237.93 2559.14 1313.46C2549.85 1327.41 2534.11 1335.18 2517.75 1335.18H2327.56C2287.62 1335.18 2264.24 1292.38 2279.47 1257.34C2302.3 1204.82 2312.53 1153.93 2314.53 1077.14ZM2366.53 1042.72C2347.62 1042.72 2332.13 1058.24 2331.63 1077.58C2329.59 1155.97 2319.08 1209.13 2295.16 1264.16C2284.14 1289.52 2301.65 1318.07 2327.56 1318.07H2517.75C2528.78 1318.07 2539 1312.84 2544.9 1303.98C2592.64 1232.27 2604.02 1173.15 2602.26 1075.26C2601.94 1057.19 2586.94 1042.72 2568.57 1042.72H2366.53Z" clip-rule="evenodd"></path><path fill="#F4AD5E" d="M1442.85 972.035C1442.85 948.415 1462 929.268 1485.62 929.268H1489.09C1512.71 929.268 1531.86 948.415 1531.86 972.035V975.509C1531.86 999.128 1512.71 1018.28 1489.09 1018.28H1485.62C1462 1018.28 1442.85 999.128 1442.85 975.509V972.035zM1866.4 1191.13C1866.4 1167.51 1885.54 1148.37 1909.16 1148.37H1912.64C1936.26 1148.37 1955.4 1167.51 1955.4 1191.13V1194.61C1955.4 1218.23 1936.26 1237.37 1912.64 1237.37H1909.16C1885.54 1237.37 1866.4 1218.23 1866.4 1194.61V1191.13z"></path><path fill="#E7E8FF" d="M2421.94 1035.61C2421.94 1011.99 2441.08 992.845 2464.7 992.845H2468.18C2491.8 992.845 2510.95 1011.99 2510.95 1035.61V1039.09C2510.95 1062.71 2491.8 1081.85 2468.18 1081.85H2464.7C2441.08 1081.85 2421.94 1062.71 2421.94 1039.09V1035.61Z"></path><path fill="#F4AD5E" fill-rule="evenodd" d="M1547.75 1109.48H1414.24V1092.37H1547.75V1109.48zM1525.5 1185.77H1391.99V1168.66H1525.5V1185.77zM1971.29 1328.58H1837.78V1311.47H1971.29V1328.58zM1949.04 1404.87H1815.53V1387.76H1949.04V1404.87z" clip-rule="evenodd"></path><path fill="#E7E8FF" fill-rule="evenodd" d="M1897.43 1611.74H1350.67V1594.63H1897.43V1611.74ZM1619.08 1713.46H1350.67V1696.35H1619.08V1713.46Z" clip-rule="evenodd"></path><path fill="#032068" d="M1827.33 1218.79C1827.33 1258.94 1794.78 1291.49 1754.62 1291.49C1714.47 1291.49 1681.92 1258.94 1681.92 1218.79C1681.92 1178.64 1714.47 1146.09 1754.62 1146.09C1794.78 1146.09 1827.33 1178.64 1827.33 1218.79Z"></path><path fill="#fff" d="M1768.36 1214.09H1793.11V1230.94H1768.36V1257.28H1749.5V1230.94H1724.68V1214.09H1749.5V1188.85H1768.36V1214.09Z"></path><path fill="#032068" d="M1205.82 2675.32L1168.17 2369.93L369.134 2336.47L348.217 2675.32H1205.82Z"></path><path fill="#EFCB96" d="M654.358 1145.46L637.625 1233.32 654.358 1325.35C697.587 1330.93 785.718 1342.09 792.411 1342.09 799.105 1342.09 848.19 1300.25 871.896 1279.33L846.796 1145.46C917.077 1122.04 940.225 1018.57 943.014 969.761 959.748 768.956 825.879 743.856 800.778 743.856 775.677 743.856 616.708 743.856 595.791 911.193 579.057 1045.06 627.863 1123.15 654.358 1145.46zM1648.14 1379.96C1630.66 1405.71 1561.18 1476.79 1553.22 1489.49L1584.53 1562.51 1670.23 1582.41C1689.52 1555.06 1744.68 1526.62 1757.8 1483.94 1768.29 1449.79 1728.15 1403.41 1708.49 1395.88L1768.5 1313.67C1776.51 1302.7 1774.25 1287.33 1763.42 1279.13 1752.83 1271.11 1737.81 1272.82 1729.29 1283L1648.14 1379.96z"></path><path fill="#032068" d="M700.369 1061.8C683.636 1158.85 659.93 1169.17 650.168 1162.2C533.033 1086.9 535.859 846.309 608.334 764.773C675.269 689.472 725.47 718.756 863.523 685.288C1001.58 651.821 1047.59 710.389 1022.49 785.69C986.36 894.089 871.89 835.892 842.606 848.442C813.322 860.992 775.671 894.46 758.937 961.394C742.204 1028.33 733.837 1015.78 721.287 978.128C708.736 940.477 675.269 886.092 650.168 953.027C630.088 1006.57 675.269 1047.85 700.369 1061.8Z"></path><path fill="#F4AD5E" d="M339.85 2457.79C390.051 2477.87 689.863 2477.31 833.494 2474.52C947.841 2474.52 1184.07 2466.99 1214.19 2436.87C1244.31 2406.75 1235.1 2176.1 1226.74 2085.46C1264.39 2131.48 1339.69 2156.58 1406.62 2110.56C1473.56 2064.54 1703.65 1637.84 1703.65 1587.63C1703.65 1537.43 1607.43 1453.77 1565.59 1453.77C1523.76 1453.77 1335.5 1683.85 1306.22 1662.94C1276.94 1642.02 1272.75 1520.7 1168.17 1370.1C1084.5 1249.61 926.924 1216.7 866.962 1215.31C861.384 1245.99 846.045 1307.35 762.376 1307.35C678.708 1307.35 643.846 1245.99 632.69 1215.31C578.306 1223.68 477.904 1261.33 440.253 1290.61C402.602 1319.9 373.318 1457.95 356.584 1554.17C339.85 1650.39 277.099 2432.69 339.85 2457.79Z"></path><path fill="#fff" d="M609.694 2048.33C621.455 2040.43 637.399 2043.55 645.305 2055.31L831.712 2332.63C839.618 2344.39 836.492 2360.34 824.731 2368.24L446.28 2622.63C434.518 2630.54 418.574 2627.41 410.668 2615.65L224.261 2338.33C216.355 2326.57 219.481 2310.63 231.242 2302.72L609.694 2048.33Z"></path><path fill="#032068" fill-rule="evenodd" d="M604.922 2041.23C620.604 2030.69 641.862 2034.86 652.404 2050.54L838.811 2327.86C849.352 2343.54 845.185 2364.8 829.503 2375.34L451.051 2629.73C435.369 2640.27 414.111 2636.1 403.57 2620.42L217.162 2343.11C206.621 2327.42 210.789 2306.17 226.471 2295.62L604.922 2041.23ZM638.206 2060.09C632.935 2052.25 622.306 2050.16 614.465 2055.43L236.014 2309.82C228.173 2315.09 226.089 2325.72 231.36 2333.56L417.767 2610.88C423.038 2618.72 433.667 2620.8 441.508 2615.53L819.959 2361.14C827.8 2355.87 829.884 2345.24 824.613 2337.4L638.206 2060.09Z" clip-rule="evenodd"></path><path fill="#EFCB96" d="M674.526 2357.38C647.752 2344 632.691 2329.49 628.508 2323.92C607.591 2347.62 563.247 2403.4 553.206 2436.87C540.656 2478.7 607.591 2541.45 628.508 2545.64C649.425 2549.82 712.176 2512.17 724.727 2491.25C734.767 2474.52 712.176 2443.84 699.626 2432.69C706.598 2422.92 731.42 2411.77 724.727 2395.03C716.36 2374.12 707.993 2374.12 674.526 2357.38Z"></path><path fill="#F4AD5E" d="M126.497 1813.54C235.266 1503.97 371.924 1336.63 440.253 1290.61C634.364 1377.63 579.701 1597.4 528.106 1696.4C498.822 1745.21 440.253 1857.05 440.253 1913.94C440.253 1985.06 661.975 2265.35 649.425 2323.92C636.875 2382.48 549.023 2453.6 511.372 2445.24C473.721 2436.87 281.283 2265.35 172.515 2118.93C85.4994 2001.79 105.58 1866.53 126.497 1813.54Z"></path><path fill="#032068" d="M1193.27 1671.3L1226.73 2089.65C1240.12 2099.69 1265.78 2118.93 1276.94 2123.11 1273.59 2089.65 1219.76 1807.96 1193.27 1671.3zM130.683 1805.17C161.362 1852.58 213.515 1983.39 176.701 2127.3 137.656 2085.46 73.7887 1962.47 130.683 1805.17z"></path><path fill="#032068" d="M1226.73 2085.46C1327.14 2038.61 1410.81 2057.57 1440.09 2072.91 1430.33 2092.43 1395.75 2132.32 1335.5 2135.66 1275.26 2139.01 1237.89 2103.59 1226.73 2085.46zM494.642 1922.31C491.295 1855.37 518.348 1738.24 532.293 1688.04 523.926 1700.59 500.499 1739.91 473.725 1796.81 440.257 1867.92 431.891 1913.94 452.808 1955.78 461.866 1973.89 496.671 2033.69 534.656 2098.01L553.21 2082.43C523.718 2022.56 496.811 1965.69 494.642 1922.31z"></path><path fill="#fff" d="M779.109 2574.92L749.825 2679.51H779.109V2574.92Z"></path><path fill="#032068" d="M758.192 1144.19C798.352 1157.58 832.099 1149.77 846.043 1144.19L858.594 1202.76C805.046 1196.07 769.347 1159.53 758.192 1144.19Z"></path></svg>