<svg fill="none" height="32" viewBox="0 0 140 32" width="140" xmlns="http://www.w3.org/2000/svg">
<path clip-rule="evenodd" d="M101.744 25.8932L106.525 5.0008L110.501 5L108.929 11.934C109.923 11.4245 111.56 10.9177 113.387 10.9177C117.905 10.9177 119.737 12.7094 118.324 18.8687C116.916 25.1136 114.06 26.9997 108.671 26.9997C106.299 26.9997 103.379 26.5494 101.744 25.8932ZM108.094 15.6118L106.298 23.4702C107.132 23.8021 108.321 23.9514 109.344 23.9514C112.168 23.9514 113.257 23.2618 114.253 18.9286C115.12 15.1617 114.445 14.176 111.657 14.176C109.89 14.176 108.288 14.7137 108.094 15.6118Z" fill="black" fill-rule="evenodd"></path>
<path d="M18.5795 8.91603C16.8166 8.91603 16.3357 8.61525 16.7496 6.85261C17.1064 5.27017 17.7157 5.02821 19.48 5.02821C21.2101 5.02821 21.6899 5.27017 21.3373 6.85261C20.9191 8.61525 20.311 8.91603 18.5795 8.91603Z" fill="black"></path>
<path d="M5.46185 11.3659L6.03976 8.79279L10.3705 7.27184L9.43686 11.3659H14.8541L14.115 14.5947H8.70344L7.19305 21.1406C6.77545 23.0241 7.1317 23.8013 9.05432 23.8013C9.99725 23.8013 11.2699 23.5623 12.1291 23.3408L11.4174 26.4692C10.2339 26.7783 8.70344 26.9997 7.35421 26.9997C3.69869 26.9997 2.12723 25.9805 3.15357 21.4672L4.72362 14.5947H2L2.7354 11.3659H5.46185Z" fill="black"></path>
<path clip-rule="evenodd" d="M93.0869 27C88.3722 27 85.5814 25.1471 86.9905 18.8996H86.9894C88.3714 12.7999 91.6712 10.918 96.4215 10.918C101.585 10.918 103.442 12.5598 101.488 19.9444H90.9358C90.2321 23.2021 91.4205 23.8609 94.2733 23.8609C95.4263 23.8609 97.6401 23.5878 98.9874 23.2304L98.9549 26.161C97.222 26.6681 94.7528 27 93.0869 27ZM98.4714 17.1064C98.9537 14.4148 98.2469 13.8486 95.968 13.8486C93.4709 13.8486 92.4434 14.595 91.6085 17.1064H98.4714Z" fill="black" fill-rule="evenodd"></path>
<path clip-rule="evenodd" d="M52.6107 27C47.8957 27 45.1054 25.1471 46.5171 18.8996C47.8955 12.7999 51.1978 10.918 55.947 10.918C61.1087 10.918 62.9697 12.5598 61.0128 19.9444H50.461C49.7559 23.2021 50.9439 23.8609 53.7968 23.8609C54.9503 23.8609 57.1645 23.5878 58.5117 23.2304L58.4775 26.161C56.746 26.6681 54.278 27 52.6107 27ZM57.9983 17.1064C58.4781 14.4148 57.7735 13.8486 55.4974 13.8486C52.9955 13.8486 51.9692 14.595 51.1339 17.1064H57.9983Z" fill="black" fill-rule="evenodd"></path>
<path d="M30.1245 10.918C31.9544 10.918 33.2677 11.2448 34.0687 11.9342H34.071C35.9636 11.3348 38.2405 10.918 40.1029 10.918C44.6878 10.918 46.1295 12.6215 44.8778 18.0894L42.9566 26.5805H38.9785L40.8069 18.4777C41.5749 15.1018 41.1295 14.2657 38.4961 14.2657C37.6954 14.2657 36.3493 14.3842 35.226 14.6825C35.3229 15.5806 35.226 16.7151 34.9048 18.0894L32.9807 26.5805H29.0055L30.8311 18.4777C31.6007 15.1018 31.1537 14.2657 28.5231 14.2657C27.6565 14.2657 26.5663 14.4148 25.7325 14.6234L23.0035 26.5805H19.0282L22.3023 12.2329C24.4471 11.515 27.5281 10.918 30.1245 10.918Z" fill="black"></path>
<path d="M78.3975 22.7826C80.7358 18.9875 82.9827 15.1611 84.8112 11.3659H88.8521C86.2526 16.2961 83.0124 21.7656 79.8064 26.5808H74.8664C74.902 23.5008 74.7706 18.7767 74.5481 16.3861C73.0377 19.5563 70.7325 23.8327 69.0938 26.5808H64.1877C63.8026 21.2865 63.2272 16.0281 62.392 11.3659H66.5929C67.1711 14.7121 67.5565 18.869 67.684 22.7826C69.5133 19.736 72.5253 14.0882 73.8412 11.3659H77.7212C78.1066 14.3248 78.3975 19.5251 78.3975 22.7826Z" fill="black"></path>
<path d="M12.554 26.5808L16.0182 11.3659H19.9909L16.5293 26.5808H12.554Z" fill="black"></path>
<path d="M125.2 14.0892C125.2 14.0892 125.297 13.0904 125.799 12.3731V12.3743C126.271 11.6926 127.145 11.291 127.145 11.291C127.145 11.291 136.751 17.0031 137.386 17.5228C137.918 17.9625 137.918 18.8533 137.386 19.293C136.751 19.8114 127.145 25.5299 127.145 25.5299C127.145 25.5299 126.271 25.1289 125.799 24.4465C125.297 23.726 125.2 22.7253 125.2 22.7253C125.2 22.7253 131.189 19.2949 131.735 18.9658C132.229 18.6697 132.229 18.1499 131.735 17.8513C131.189 17.5165 125.2 14.0892 125.2 14.0892Z" fill="black"></path>
</svg>